<?xml version="1.0" encoding="UTF-8"?>
<svg version="1.1" xmlns="http://www.w3.org/2000/svg" width="500" height="500">
<path d="M0 0 C6.06294292 5.77423135 8.68484968 13.4140236 9.15258789 21.70458984 C9.17126315 28.81444143 8.59725284 35.61345593 7.4375 42.625 C7.26331543 43.69113525 7.08913086 44.75727051 6.90966797 45.85571289 C2.88450933 69.15433823 -4.57959868 91.67383058 -13.2734375 113.60546875 C-15.42953445 119.05352824 -17.43831126 124.55418501 -19.4453125 130.05859375 C-20.97865315 134.08296057 -22.79205311 137.96718747 -24.59033203 141.87866211 C-27.30448173 147.8884307 -29.83140972 153.97907914 -32.375 160.0625 C-32.66102081 160.74597504 -32.94704163 161.42945007 -33.24172974 162.13363647 C-40.10317433 178.54421039 -46.83167554 194.96310945 -52 212 C-52.21317871 212.69947754 -52.42635742 213.39895508 -52.64599609 214.11962891 C-56.31022757 226.54198384 -59.5046913 242.53423941 -54 254.8125 C-47.48715525 265.21470556 -37.60239523 269.59534138 -26.125 272.38671875 C13.99563399 280.26039317 53.52214561 266.96234474 87.82421875 246.82421875 C91.50875039 244.70776577 95.2704525 242.82558044 99.109375 241.0078125 C101.16350102 240.03074352 101.16350102 240.03074352 103 238 C108.22871077 234.93097412 108.22871077 234.93097412 111.0078125 235.1796875 C115.82844537 237.16465398 118.02089629 243.08383997 120.2734375 247.4921875 C125.35380301 259.92286906 124.87433434 276.64614953 120.2890625 289.1484375 C118.1291851 293.9263481 115.70112938 298.50712147 113 303 C112.34 303 111.68 303 111 303 C110.93554688 303.53238281 110.87109375 304.06476563 110.8046875 304.61328125 C109.64869512 308.04197711 107.44848428 310.4834859 105.125 313.1875 C104.38733398 314.05024536 104.38733398 314.05024536 103.63476562 314.93041992 C98.92911771 320.29920452 93.70947985 324.71993213 88 329 C86.72576172 330.01320313 86.72576172 330.01320313 85.42578125 331.046875 C78.37499198 336.48515192 70.83296452 340.36519857 62.81298828 344.13769531 C61.3085037 344.85326756 59.82158917 345.60564433 58.33984375 346.3671875 C42.15561088 354.4198302 23.71690625 358.12247376 6 361 C4.10701172 361.32097656 4.10701172 361.32097656 2.17578125 361.6484375 C-4.91669864 362.76447196 -11.97570229 363.33625768 -19.14160156 363.65893555 C-22.06420409 363.7946029 -24.8811681 363.97725615 -27.7578125 364.52783203 C-31.45166662 365.06577735 -34.9773534 364.99626262 -38.6875 364.80078125 C-39.41864014 364.76609238 -40.14978027 364.7314035 -40.90307617 364.69566345 C-43.26938662 364.57815209 -45.63462571 364.44750395 -48 364.3125 C-48.80856445 364.26710083 -49.61712891 364.22170166 -50.45019531 364.17492676 C-92.29630829 361.75131865 -133.38930187 349.69933977 -162.6875 318.1875 C-176.70189651 301.5021244 -181.57530866 280.69403842 -181.3125 259.375 C-181.31572266 258.06015625 -181.31894531 256.7453125 -181.32226562 255.390625 C-181.25859503 243.74469523 -179.61756872 233.04822806 -176.1875 221.9375 C-175.92179199 221.06826904 -175.65608398 220.19903809 -175.38232422 219.3034668 C-173.38809336 212.92873063 -170.96363085 206.98586457 -168 201 C-167.45113163 199.76896666 -166.90725142 198.53570251 -166.3671875 197.30078125 C-160.99502025 185.18667414 -154.17215022 174.12278484 -147 163 C-146.60103516 162.35853027 -146.20207031 161.71706055 -145.79101562 161.05615234 C-144.91327833 159.6693761 -143.96479654 158.32768172 -143 157 C-142.34 157 -141.68 157 -141 157 C-140.7421875 156.28457031 -140.484375 155.56914062 -140.21875 154.83203125 C-138.92615235 151.82839889 -137.3722291 149.36494628 -135.5 146.6875 C-134.8915625 145.80449219 -134.283125 144.92148438 -133.65625 144.01171875 C-133.1096875 143.34785156 -132.563125 142.68398437 -132 142 C-131.34 142 -130.68 142 -130 142 C-129.34 140.35 -128.68 138.7 -128 137 C-127.34 137 -126.68 137 -126 137 C-125.73832031 136.42894531 -125.47664063 135.85789063 -125.20703125 135.26953125 C-117.73417075 121.2186188 -103.67664016 108.54485466 -92.76147461 97.10302734 C-92.15440674 96.46445801 -91.54733887 95.82588867 -90.921875 95.16796875 C-90.38143555 94.60360107 -89.84099609 94.0392334 -89.28417969 93.45776367 C-87.89845526 92.00995864 -87.89845526 92.00995864 -87 90 C-86.34 90 -85.68 90 -85 90 C-84.75636719 89.42765625 -84.51273437 88.8553125 -84.26171875 88.265625 C-82.77482702 85.59566462 -81.01916092 83.86170993 -78.8125 81.75 C-73.73269413 76.7845306 -69.02510895 71.62716837 -64.6875 66 C-64.130625 65.34 -63.57375 64.68 -63 64 C-62.34 64 -61.68 64 -61 64 C-60.59116577 63.10788818 -60.59116577 63.10788818 -60.17407227 62.19775391 C-59.03199951 60.05990011 -57.87707268 58.58388243 -56.21484375 56.8359375 C-55.68439453 56.27132812 -55.15394531 55.70671875 -54.60742188 55.125 C-53.78081055 54.25875 -53.78081055 54.25875 -52.9375 53.375 C-49.03429271 49.50673691 -49.03429271 49.50673691 -46 45 C-45.34 45 -44.68 45 -44 45 C-43.7421875 44.43796875 -43.484375 43.8759375 -43.21875 43.296875 C-41.85830223 40.73295421 -40.27211038 38.54773635 -38.5 36.25 C-37.8915625 35.45078125 -37.283125 34.6515625 -36.65625 33.828125 C-36.1096875 33.22484375 -35.563125 32.6215625 -35 32 C-34.34 32 -33.68 32 -33 32 C-32.67902344 31.21882813 -32.67902344 31.21882813 -32.3515625 30.421875 C-30.44022081 26.99692746 -27.94208743 24.20191372 -25.375 21.25 C-24.83810547 20.62746338 -24.30121094 20.00492676 -23.74804688 19.36352539 C-20.19438991 15.27735187 -16.511685 11.38240708 -12.6171875 7.6171875 C-10.5564098 5.5564098 -8.80173494 3.28681742 -7 1 C-4.32590305 -0.33704848 -2.97186266 -0.4837916 0 0 Z M-43 58 C-44.37562854 59.28965176 -45.70766393 60.62689293 -47 62 C-47 62.66 -47 63.32 -47 64 C-47.66 64 -48.32 64 -49 64 C-49 64.66 -49 65.32 -49 66 C-49.66 66 -50.32 66 -51 66 C-51 66.66 -51 67.32 -51 68 C-51.66 68 -52.32 68 -53 68 C-53 68.66 -53 69.32 -53 70 C-53.66 70 -54.32 70 -55 70 C-56.47100945 71.64682362 -56.47100945 71.64682362 -58 73.8125 C-61.63196994 78.62979904 -65.60820712 83.03660044 -69.6875 87.4765625 C-74.65195191 92.14893311 -74.65195191 92.14893311 -77 98 C-77.66 98 -78.32 98 -79 98 C-80.56432787 99.69274284 -82.05328572 101.45569852 -83.5 103.25 C-84.2940625 104.22453125 -85.088125 105.1990625 -85.90625 106.203125 C-87.58748034 108.44894762 -88.88135899 110.4465803 -90 113 C-90.66 113 -91.32 113 -92 113 C-95.02517909 116.05558423 -95.02517909 116.05558423 -96 120 C-96.66 120 -97.32 120 -98 120 C-99.58434414 121.86160436 -101.04881711 123.72550517 -102.5 125.6875 C-103.40723838 126.89346523 -104.31479908 128.09918803 -105.22265625 129.3046875 C-105.68559082 129.92311523 -106.14852539 130.54154297 -106.62548828 131.17871094 C-107.8983984 132.86537336 -109.19052344 134.53386648 -110.49609375 136.1953125 C-116.5423652 143.91519188 -122.16356589 151.86840305 -127.64306641 159.99902344 C-128.95925541 161.93991676 -130.2951455 163.8656564 -131.63671875 165.7890625 C-137.2308664 173.88023713 -141.88418442 182.1503693 -146.07080078 191.04882812 C-146.9658365 192.92826203 -147.89645779 194.78508101 -148.83984375 196.640625 C-159.83349479 218.6130265 -163.68656845 241.63953422 -163 266 C-162.67 266 -162.34 266 -162 266 C-161.90501221 265.37246826 -161.81002441 264.74493652 -161.7121582 264.09838867 C-157.41714836 236.11327703 -150.84183034 205.74278875 -133.20703125 182.65234375 C-131.7050635 180.93729468 -131.7050635 180.93729468 -132 178 C-131.34 178 -130.68 178 -130 178 C-129.34 176.02 -128.68 174.04 -128 172 C-127.34 172 -126.68 172 -126 172 C-124.62486545 170.02671276 -123.36735014 168.05527629 -122.125 166 C-116.90314279 157.62194485 -111.01043993 149.82260263 -105 142 C-104.12104462 140.8516001 -103.24213603 139.70316439 -102.36328125 138.5546875 C-98.98162249 134.1450832 -95.58783689 129.74585593 -92.15625 125.375 C-91.69105957 124.77905029 -91.22586914 124.18310059 -90.74658203 123.5690918 C-89.8505614 122.4215538 -88.9506536 121.27703753 -88.04638672 120.13598633 C-85.70443305 117.3933962 -85.70443305 117.3933962 -85 114 C-84.34 114 -83.68 114 -83 114 C-81.55512371 112.32878043 -80.19801772 110.58175591 -78.875 108.8125 C-77.98322676 107.62879033 -77.09128737 106.44520583 -76.19921875 105.26171875 C-75.6995459 104.59446777 -75.19987305 103.9272168 -74.68505859 103.23974609 C-72.78852172 100.71890732 -70.87415565 98.21224712 -68.95703125 95.70703125 C-58.28519871 84.18447714 -58.28519871 84.18447714 -52 71 C-51.34 71 -50.68 71 -50 71 C-49.34 69.35 -48.68 67.7 -48 66 C-47.34 66 -46.68 66 -46 66 C-44.61061923 64.03852126 -43.2739589 62.03833424 -42 60 C-42.495 59.01 -42.495 59.01 -43 58 Z " fill="#3072CD" transform="translate(279,74)"/>
<path d="M0 0 C2.4375 1.0625 2.4375 1.0625 5 3 C5.8125 6.6875 5.8125 6.6875 6 10 C5.34 10 4.68 10 4 10 C4 10.66 4 11.32 4 12 C3.34 12 2.68 12 2 12 C1.62875 12.83337891 1.62875 12.83337891 1.25 13.68359375 C-3.20972341 21.94801869 -10.65449203 28.92620516 -17.03125 35.78515625 C-19.02671788 37.83679121 -19.02671788 37.83679121 -20 40 C-20.66 40 -21.32 40 -22 40 C-22.2371875 40.54140625 -22.474375 41.0828125 -22.71875 41.640625 C-24.34347757 44.63250137 -26.3501877 47.11159399 -28.5 49.75 C-29.2940625 50.73484375 -30.088125 51.7196875 -30.90625 52.734375 C-31.5971875 53.48203125 -32.288125 54.2296875 -33 55 C-33.66 55 -34.32 55 -35 55 C-35.28875 55.598125 -35.5775 56.19625 -35.875 56.8125 C-37 59 -37 59 -39 62 C-39.66 62 -40.32 62 -41 62 C-41.23203125 62.53496094 -41.4640625 63.06992188 -41.703125 63.62109375 C-43.3872781 66.71039868 -45.54585228 69.33735768 -47.75 72.0625 C-58.27934859 85.30435619 -68.28348512 98.80649657 -76.99072266 113.32373047 C-77.87894071 114.79893732 -78.7875208 116.26184367 -79.69921875 117.72265625 C-83.94468614 124.57557605 -87.47371898 131.75964785 -91 139 C-91.66 138.34 -92.32 137.68 -93 137 C-92.69140625 135.171875 -92.69140625 135.171875 -92 133 C-91.64110788 131.41773109 -91.28699368 129.83437137 -90.9375 128.25 C-90.76089844 127.45078125 -90.58429688 126.6515625 -90.40234375 125.828125 C-90.20318359 124.92320312 -90.20318359 124.92320312 -90 124 C-91.485 124.495 -91.485 124.495 -93 125 C-95.0625 124.125 -95.0625 124.125 -97 123 C-97.66 122.67 -98.32 122.34 -99 122 C-99 122.99 -99 123.98 -99 125 C-99.66 125 -100.32 125 -101 125 C-99.39486957 120.50390886 -97.09896785 116.61705842 -94.625 112.5625 C-94.23828125 111.91990234 -93.8515625 111.27730469 -93.453125 110.61523438 C-92.31538064 108.73490183 -91.16169439 106.86561514 -90 105 C-89.45037598 104.10450439 -89.45037598 104.10450439 -88.88964844 103.19091797 C-87.9816724 101.75742661 -86.99728512 100.37285845 -86 99 C-85.34 99 -84.68 99 -84 99 C-83.7421875 98.28457031 -83.484375 97.56914062 -83.21875 96.83203125 C-81.92615235 93.82839889 -80.3722291 91.36494628 -78.5 88.6875 C-77.58734375 87.36298828 -77.58734375 87.36298828 -76.65625 86.01171875 C-76.1096875 85.34785156 -75.563125 84.68398437 -75 84 C-74.34 84 -73.68 84 -73 84 C-72.34 82.35 -71.68 80.7 -71 79 C-70.34 79 -69.68 79 -69 79 C-68.73832031 78.42894531 -68.47664063 77.85789062 -68.20703125 77.26953125 C-60.73417075 63.2186188 -46.67664016 50.54485466 -35.76147461 39.10302734 C-34.8508728 38.14517334 -34.8508728 38.14517334 -33.921875 37.16796875 C-33.11121582 36.32141724 -33.11121582 36.32141724 -32.28417969 35.45776367 C-30.89845526 34.00995864 -30.89845526 34.00995864 -30 32 C-29.34 32 -28.68 32 -28 32 C-27.75636719 31.42765625 -27.51273437 30.8553125 -27.26171875 30.265625 C-25.77482702 27.59566462 -24.01916092 25.86170993 -21.8125 23.75 C-16.73269413 18.7845306 -12.02510895 13.62716837 -7.6875 8 C-7.130625 7.34 -6.57375 6.68 -6 6 C-5.34 6 -4.68 6 -4 6 C-3.71125 5.38125 -3.4225 4.7625 -3.125 4.125 C-2 2 -2 2 0 0 Z " fill="#3573C9" transform="translate(222,132)"/>
<path d="M0 0 C1.953125 0.7109375 1.953125 0.7109375 4 2 C4.609375 4.1640625 4.609375 4.1640625 4.75 6.625 C4.80671875 7.44226563 4.8634375 8.25953125 4.921875 9.1015625 C4.94765625 9.72804687 4.9734375 10.35453125 5 11 C4.01 11.66 3.02 12.32 2 13 C1.34 12.67 0.68 12.34 0 12 C0 12.66 0 13.32 0 14 C-0.99 14.33 -1.98 14.66 -3 15 C-3.33 16.65 -3.66 18.3 -4 20 C-4.99 20 -5.98 20 -7 20 C-7.33 20.99 -7.66 21.98 -8 23 C-9.01497436 26.04492309 -9.5821057 27.0298639 -12 29 C-13.875 29.5625 -13.875 29.5625 -16 30 C-17.6744239 30.6469365 -19.34302621 31.30959426 -21 32 C-20.78803405 25.95897042 -19.72258153 22.92727521 -15.66796875 18.4453125 C-13.29845066 16.39210011 -11.18185135 15 -8 15 C-5.95830515 12.09451118 -5 10.59857954 -5 7 C-6.32 7.33 -7.64 7.66 -9 8 C-6.14723863 5.06799526 -3.34920216 2.35684596 0 0 Z " fill="#3273CD" transform="translate(172,190)"/>
<path d="M0 0 C2.4375 1.0625 2.4375 1.0625 5 3 C5.8125 6.6875 5.8125 6.6875 6 10 C5.34 10 4.68 10 4 10 C4 10.66 4 11.32 4 12 C3.21625 12.2475 2.4325 12.495 1.625 12.75 C-1.43941457 14.20924503 -1.61725761 15.05014956 -3 18 C-5.125 19.25 -5.125 19.25 -7 20 C-7.66 19.34 -8.32 18.68 -9 18 C-11.10820797 18.3185177 -11.10820797 18.3185177 -13 19 C-13.33 18.34 -13.66 17.68 -14 17 C-11.92426743 12.84853486 -9.10142591 9.41952088 -6 6 C-5.34 6 -4.68 6 -4 6 C-3.566875 5.071875 -3.566875 5.071875 -3.125 4.125 C-2 2 -2 2 0 0 Z " fill="#3572C2" transform="translate(222,132)"/>
<path d="M0 0 C0.66 0 1.32 0 2 0 C-2.3970955 9.87056334 -11.70401919 18.12521486 -19 26 C-19.33 25.01 -19.66 24.02 -20 23 C-20.33 22.67 -20.66 22.34 -21 22 C-21.66 22 -22.32 22 -23 22 C-23 21.34 -23 20.68 -23 20 C-23.66 19.67 -24.32 19.34 -25 19 C-23.02 19 -21.04 19 -19 19 C-19 18.34 -19 17.68 -19 17 C-18.34 17.33 -17.68 17.66 -17 18 C-15.68 16.68 -14.36 15.36 -13 14 C-13.66 14 -14.32 14 -15 14 C-15 11 -15 11 -14 10 C-14.99 10 -15.98 10 -17 10 C-17 10.66 -17 11.32 -17 12 C-17.99 11.67 -18.98 11.34 -20 11 C-18.02 8.36 -16.04 5.72 -14 3 C-13.67 3.99 -13.34 4.98 -13 6 C-12.01 6 -11.02 6 -10 6 C-9.34 5.34 -8.68 4.68 -8 4 C-7.67 4.99 -7.34 5.98 -7 7 C-6.34 7.33 -5.68 7.66 -5 8 C-4.67 7.01 -4.34 6.02 -4 5 C-2.0625 2.3125 -2.0625 2.3125 0 0 Z " fill="#5587CA" transform="translate(222,144)"/>
<path d="M0 0 C2.78125 0.2421875 2.78125 0.2421875 6.5 0.875 C24.16439329 3.47939218 42.38299242 2.54923107 60 0 C60 0.66 60 1.32 60 2 C50.90620256 6.54689872 37.74374324 5.28431609 27.78271484 5.20581055 C25.34332062 5.18725908 22.90430204 5.18530366 20.46484375 5.18554688 C18.90103839 5.18064018 17.33723557 5.17481561 15.7734375 5.16796875 C15.05054535 5.16685593 14.3276532 5.1657431 13.58285522 5.16459656 C10.2503184 5.13311064 7.18702647 5.03031088 4 4 C4 3.34 4 2.68 4 2 C2.02 2 0.04 2 -2 2 C-1.34 1.34 -0.68 0.68 0 0 Z " fill="#7199CF" transform="translate(248,346)"/>
<path d="M0 0 C0.66 0 1.32 0 2 0 C2.27427395 4.20553391 1.98620154 7.3803181 0.625 11.375 C-4.10744692 26.35734379 -3.2546567 42.48748903 -3 58 C-3.33 58 -3.66 58 -4 58 C-5.40186255 52.06603119 -5.18601056 46.09566617 -5.18530273 40.03735352 C-5.18746804 37.96804564 -5.20558952 35.89929038 -5.22460938 33.83007812 C-5.27540767 21.99141138 -3.72747258 11.23211738 0 0 Z " fill="#6991C7" transform="translate(103,296)"/>
<path d="M0 0 C1.953125 0.7109375 1.953125 0.7109375 4 2 C4.609375 4.1640625 4.609375 4.1640625 4.75 6.625 C4.80671875 7.44226563 4.8634375 8.25953125 4.921875 9.1015625 C4.96054688 10.04128906 4.96054688 10.04128906 5 11 C4.01 11.66 3.02 12.32 2 13 C1.34 12.67 0.68 12.34 0 12 C0 12.66 0 13.32 0 14 C-2.97 13.505 -2.97 13.505 -6 13 C-5.67 11.02 -5.34 9.04 -5 7 C-6.32 7.33 -7.64 7.66 -9 8 C-6.14723863 5.06799526 -3.34920216 2.35684596 0 0 Z " fill="#3B77C8" transform="translate(172,190)"/>
<path d="M0 0 C5.52315952 0.38090755 10.66201374 1.57018225 16 3 C16 2.34 16 1.68 16 1 C17.32 1 18.64 1 20 1 C20 2.32 20 3.64 20 5 C20.81984375 5.10957031 21.6396875 5.21914063 22.484375 5.33203125 C23.56203125 5.49058594 24.6396875 5.64914062 25.75 5.8125 C26.81734375 5.96332031 27.8846875 6.11414063 28.984375 6.26953125 C32.05451094 7.01320407 33.66080478 7.92765472 36 10 C29.48729894 10.28117846 23.86556543 9.27349123 17.5625 7.6875 C16.22735352 7.36749023 16.22735352 7.36749023 14.86523438 7.04101562 C9.13824629 5.6395978 3.56146285 3.95581935 -2 2 C-1.34 1.34 -0.68 0.68 0 0 Z " fill="#5487C5" transform="translate(172,425)"/>
<path d="M0 0 C0.66 0 1.32 0 2 0 C1.39804504 3.60359523 -0.03399806 5.54629566 -2.375 8.3125 C-6.08114106 12.80703834 -9.57043509 17.41894279 -13 22.125 C-13.73935791 23.13880737 -13.73935791 23.13880737 -14.49365234 24.1730957 C-15.66419601 25.78078302 -16.83236016 27.39020243 -18 29 C-18.66 28.34 -19.32 27.68 -20 27 C-19.67 26.67 -19.34 26.34 -19 26 C-18.76924918 24.65252916 -18.58846937 23.29622435 -18.4375 21.9375 C-18.293125 20.638125 -18.14875 19.33875 -18 18 C-17.34 18 -16.68 18 -16 18 C-15.67 17.34 -15.34 16.68 -15 16 C-14.01 16.33 -13.02 16.66 -12 17 C-11.67 16.01 -11.34 15.02 -11 14 C-10.34 14 -9.68 14 -9 14 C-9 12.35 -9 10.7 -9 9 C-7.35 8.67 -5.7 8.34 -4 8 C-4 6.35 -4 4.7 -4 3 C-2.68 2.67 -1.36 2.34 0 2 C0 1.34 0 0.68 0 0 Z " fill="#6792C7" transform="translate(172,202)"/>
<path d="M0 0 C2.78913106 1.39456553 3.00840365 2.78848502 4.125 5.6875 C6.13374524 11.908614 6.37391971 17.79887796 6.375 24.3125 C6.3764502 25.25504639 6.37790039 26.19759277 6.37939453 27.16870117 C6.29574911 32.47548611 5.73149181 36.97867375 4 42 C3.67 42 3.34 42 3 42 C2.98018066 41.0620459 2.96036133 40.1240918 2.93994141 39.15771484 C2.8615614 35.65746299 2.77485919 32.15761836 2.68261719 28.65771484 C2.64447888 27.146727 2.60960028 25.63565304 2.578125 24.12451172 C2.53214295 21.94467522 2.47420675 19.7654238 2.4140625 17.5859375 C2.3826416 16.2767334 2.3512207 14.9675293 2.31884766 13.61865234 C2.00779756 10.08849575 1.16654112 7.32420364 0 4 C0 2.68 0 1.36 0 0 Z " fill="#5584C2" transform="translate(396,318)"/>
<path d="M0 0 C20.13 0 40.26 0 61 0 C61 0.33 61 0.66 61 1 C59.98679687 1.13277344 58.97359375 1.26554687 57.9296875 1.40234375 C56.57811796 1.58067584 55.22655586 1.75906425 53.875 1.9375 C53.20984375 2.02451172 52.5446875 2.11152344 51.859375 2.20117188 C48.97998157 2.58226806 46.12602158 2.97451986 43.27832031 3.55029297 C39.36548154 4.08704074 35.60539683 3.95544865 31.6796875 3.73046875 C30.89860626 3.68940506 30.11752502 3.64834137 29.31277466 3.60603333 C27.67041006 3.51763273 26.02822527 3.42583265 24.38623047 3.33081055 C21.87645136 3.18758283 19.36619373 3.06096041 16.85546875 2.93554688 C15.25515277 2.84735664 13.65488985 2.75819717 12.0546875 2.66796875 C11.30669891 2.63140671 10.55871033 2.59484467 9.78805542 2.55717468 C5.8296427 2.31372221 3.63373504 1.81686752 0 0 Z " fill="#6C93C7" transform="translate(208,435)"/>
<path d="M0 0 C0.33 1.32 0.66 2.64 1 4 C0.01 4.495 0.01 4.495 -1 5 C-1.433125 5.99 -1.433125 5.99 -1.875 7 C-2.24625 7.66 -2.6175 8.32 -3 9 C-3.598125 9.144375 -4.19625 9.28875 -4.8125 9.4375 C-9.2778646 10.58573661 -11.6888801 14.49443016 -14 18.25 C-16 21 -16 21 -18.75 21.875 C-19.4925 21.91625 -20.235 21.9575 -21 22 C-20.505 20.515 -20.505 20.515 -20 19 C-19.34 19 -18.68 19 -18 19 C-17.34 17.35 -16.68 15.7 -16 14 C-15.34 14 -14.68 14 -14 14 C-13.74089844 13.43667969 -13.48179687 12.87335938 -13.21484375 12.29296875 C-11.87040725 9.75539889 -10.31210305 7.58886526 -8.5625 5.3125 C-7.96566406 4.52488281 -7.36882812 3.73726562 -6.75390625 2.92578125 C-4.6613422 0.62815524 -3.11424312 0 0 0 Z " fill="#467CC5" transform="translate(167,197)"/>
<path d="M0 0 C0.66 0 1.32 0 2 0 C2.33 1.98 2.66 3.96 3 6 C2.236875 6.515625 1.47375 7.03125 0.6875 7.5625 C-2.61549693 10.5582414 -3.37550794 12.90009148 -5 17 C-5.66 17.33 -6.32 17.66 -7 18 C-7.46523063 19.89533342 -7.46523063 19.89533342 -7.625 22.0625 C-7.810625 24.0115625 -7.810625 24.0115625 -8 26 C-9.65 26.33 -11.3 26.66 -13 27 C-13 27.99 -13 28.98 -13 30 C-13.66 30 -14.32 30 -15 30 C-13.47445351 24.80822081 -11.18604789 20.29541693 -8.625 15.5625 C-8.23828125 14.83740234 -7.8515625 14.11230469 -7.453125 13.36523438 C-5.04360966 8.86558577 -2.55112399 4.42078334 0 0 Z " fill="#477BC1" transform="translate(147,252)"/>
<path d="M0 0 C0.66 0.99 1.32 1.98 2 3 C1.67 3.66 1.34 4.32 1 5 C0.34 5 -0.32 5 -1 5 C-1.433125 5.86625 -1.433125 5.86625 -1.875 6.75 C-2.91666667 8.83333333 -3.95833333 10.91666667 -5 13 C-5.66 13 -6.32 13 -7 13 C-7.226875 13.556875 -7.45375 14.11375 -7.6875 14.6875 C-9 17 -9 17 -11.4375 19.3125 C-13.69834258 21.68362758 -14.49029254 22.79369578 -15.625 25.6875 C-17 29 -17 29 -20 31 C-20.66 30.67 -21.32 30.34 -22 30 C-20.65961958 27.13727091 -19.13760321 24.7068948 -17.20703125 22.20703125 C-16.66199951 21.49796631 -16.11696777 20.78890137 -15.55541992 20.05834961 C-14.98025635 19.31721924 -14.40509277 18.57608887 -13.8125 17.8125 C-13.22895752 17.05525635 -12.64541504 16.2980127 -12.04418945 15.51782227 C-10.3663684 13.34241957 -8.6840529 11.17058028 -7 9 C-6.20335937 7.97132813 -5.40671875 6.94265625 -4.5859375 5.8828125 C-3.06116021 3.91879896 -1.53345229 1.95724274 0 0 Z " fill="#4279C4" transform="translate(218,158)"/>
<path d="M0 0 C0.99 0 1.98 0 3 0 C1.53139371 4.44097167 0.05100008 8.87609799 -1.5 13.2890625 C-4.80341494 22.7839467 -7.33169746 32.07799017 -9 42 C-9.33 42 -9.66 42 -10 42 C-10.80640573 28.71670561 -7.84505313 16.89885817 -2 5 C-1.34 5 -0.68 5 0 5 C0 3.35 0 1.7 0 0 Z " fill="#6997CA" transform="translate(127,271)"/>
<path d="M0 0 C0 0.66 0 1.32 0 2 C-1.63183107 3.05589069 -3.30792999 4.0436126 -5 5 C-9.16292572 7.3741927 -9.16292572 7.3741927 -12 11 C-13.92578125 11.52734375 -13.92578125 11.52734375 -16.3125 11.9375 C-19.28505289 12.51980104 -20.79492002 12.84619001 -23.25 14.6875 C-25 16 -25 16 -27.75 15.6875 C-28.4925 15.460625 -29.235 15.23375 -30 15 C-27.96373475 12.96373475 -26.48213888 12.16781298 -23.89453125 10.9765625 C-23.07533203 10.595 -22.25613281 10.2134375 -21.41210938 9.8203125 C-20.55423828 9.42585938 -19.69636719 9.03140625 -18.8125 8.625 C-11.79465237 5.3968754 -11.79465237 5.3968754 -5.01171875 1.7109375 C-2 0 -2 0 0 0 Z M-29 17 C-26.875 17.375 -26.875 17.375 -25 18 C-25 18.33 -25 18.66 -25 19 C-26.98 19 -28.96 19 -31 19 C-30.34 18.34 -29.68 17.68 -29 17 Z " fill="#5B89C6" transform="translate(369,321)"/>
<path d="M0 0 C0.33 0 0.66 0 1 0 C3.25209723 9.93082633 1.83083911 19.84161537 0.125 29.75 C-0.04902344 30.82121094 -0.22304688 31.89242187 -0.40234375 32.99609375 C-1.35704023 38.7454881 -2.49068236 44.37065313 -4 50 C-4.33 50 -4.66 50 -5 50 C-4.71064209 42.78600802 -4.40012239 35.92624284 -2.5 28.9375 C-0.07331783 19.51487071 -0.23586144 9.67813763 0 0 Z " fill="#88ABD2" transform="translate(286,88)"/>
<path d="M0 0 C0 0.99 0 1.98 0 3 C0.15127402 4.56406528 0.31902522 6.12659252 0.5 7.6875 C0.5928125 8.49574219 0.685625 9.30398437 0.78125 10.13671875 C0.8534375 10.75160156 0.925625 11.36648437 1 12 C2.65 11.67 4.3 11.34 6 11 C6 11.66 6 12.32 6 13 C5.34 13 4.68 13 4 13 C3.566875 13.928125 3.566875 13.928125 3.125 14.875 C2 17 2 17 0 19 C-0.28875 17.88625 -0.5775 16.7725 -0.875 15.625 C-1.69241329 11.99708908 -1.69241329 11.99708908 -4 10 C-4.61875 10.309375 -5.2375 10.61875 -5.875 10.9375 C-7.25 11.625 -8.625 12.3125 -10 13 C-8.48446596 9.52224821 -6.4226544 7.0442016 -3.875 4.25 C-3.15054688 3.45078125 -2.42609375 2.6515625 -1.6796875 1.828125 C-0.84824219 0.92320312 -0.84824219 0.92320312 0 0 Z " fill="#6694CF" transform="translate(177,181)"/>
<path d="M0 0 C1.2065625 0.0309375 1.2065625 0.0309375 2.4375 0.0625 C-1.70326413 9.34128036 -9.85767223 16.70556172 -17.5625 23.0625 C-17.8925 21.7425 -18.2225 20.4225 -18.5625 19.0625 C-17.9025 19.0625 -17.2425 19.0625 -16.5625 19.0625 C-16.5625 17.7425 -16.5625 16.4225 -16.5625 15.0625 C-14.9125 15.0625 -13.2625 15.0625 -11.5625 15.0625 C-11.27375 14.485 -10.985 13.9075 -10.6875 13.3125 C-9.125 10.1875 -9.125 10.1875 -7.5625 7.0625 C-6.2425 7.0625 -4.9225 7.0625 -3.5625 7.0625 C-3.583125 6.093125 -3.60375 5.12375 -3.625 4.125 C-3.54257968 0.08640438 -3.54257968 0.08640438 0 0 Z " fill="#6D92C8" transform="translate(387.5625,377.9375)"/>
<path d="M0 0 C0.99 0 1.98 0 3 0 C1.58307609 5.15245057 -0.64368446 9.82701421 -4 14 C-4.99 14.33 -5.98 14.66 -7 15 C-8.70586575 16.62652316 -10.3777546 18.29006566 -12 20 C-12 17 -12 17 -11 15 C-10.34 15 -9.68 15 -9 15 C-8.74089844 14.28457031 -8.48179687 13.56914062 -8.21484375 12.83203125 C-6.93291919 9.8436219 -5.40586004 7.36334522 -3.5625 4.6875 C-2.96566406 3.80449219 -2.36882812 2.92148438 -1.75390625 2.01171875 C-1.17511719 1.34785156 -0.59632813 0.68398437 0 0 Z " fill="#6E98CE" transform="translate(162,231)"/>
<path d="M0 0 C0.66 0.66 1.32 1.32 2 2 C1.01 2 0.02 2 -1 2 C-1 2.99 -1 3.98 -1 5 C-0.34 5 0.32 5 1 5 C0.67 5.99 0.34 6.98 0 8 C-0.66 8 -1.32 8 -2 8 C-2.33 8.99 -2.66 9.98 -3 11 C-3.66 10.01 -4.32 9.02 -5 8 C-5 8.66 -5 9.32 -5 10 C-7.64 10.33 -10.28 10.66 -13 11 C-12.23997083 9.68121422 -11.46656347 8.3701316 -10.6875 7.0625 C-10.25824219 6.33160156 -9.82898438 5.60070312 -9.38671875 4.84765625 C-8 3 -8 3 -5 2 C-4.34 2.33 -3.68 2.66 -3 3 C-3 2.34 -3 1.68 -3 1 C-2.01 0.67 -1.02 0.34 0 0 Z " fill="#3F78C2" transform="translate(208,153)"/>
<path d="M0 0 C-6.31672384 3.14497903 -12.72676996 5.7196227 -19.4375 7.875 C-20.12328125 8.1021167 -20.8090625 8.3292334 -21.515625 8.56323242 C-24.98040828 9.64170602 -27.55678419 10.42660092 -31 9 C-31 7.68 -31 6.36 -31 5 C-29.02 5 -27.04 5 -25 5 C-25 5.66 -25 6.32 -25 7 C-23.02 6.67 -21.04 6.34 -19 6 C-19 5.34 -19 4.68 -19 4 C-16.79645201 3.265484 -14.59268289 2.53192843 -12.38671875 1.8046875 C-10.47312397 1.15951479 -8.57688108 0.46297399 -6.6875 -0.25 C-3.83402593 -1.04631835 -2.75197675 -0.8214856 0 0 Z " fill="#5D8ECD" transform="translate(340,419)"/>
<path d="M0 0 C0.66 0.33 1.32 0.66 2 1 C1.67 1.66 1.34 2.32 1 3 C2.65 3 4.3 3 6 3 C6 3.66 6 4.32 6 5 C5.34 5 4.68 5 4 5 C3.731875 5.61875 3.46375 6.2375 3.1875 6.875 C2 9 2 9 -1 11 C-2.32 11 -3.64 11 -5 11 C-5.33 9.02 -5.66 7.04 -6 5 C-5.01 5.33 -4.02 5.66 -3 6 C-2.87625 5.195625 -2.7525 4.39125 -2.625 3.5625 C-2.41875 2.716875 -2.2125 1.87125 -2 1 C-1.34 0.67 -0.68 0.34 0 0 Z " fill="#3471C9" transform="translate(183,182)"/>
<path d="M0 0 C1.13764556 3.41293668 1.22600107 4.64893042 0 8 C-5.08108108 12 -5.08108108 12 -8 12 C-8.66 13.98 -9.32 15.96 -10 18 C-11.65 18.33 -13.3 18.66 -15 19 C-13.63055898 16.05043472 -12.12169591 13.47531189 -10 11 C-9.34 11 -8.68 11 -8 11 C-7.73445312 10.41734375 -7.46890625 9.8346875 -7.1953125 9.234375 C-5.96697004 6.93825772 -4.59685061 5.19643982 -2.875 3.25 C-2.33617187 2.63640625 -1.79734375 2.0228125 -1.2421875 1.390625 C-0.62730469 0.70226562 -0.62730469 0.70226562 0 0 Z " fill="#6990CB" transform="translate(254,95)"/>
<path d="M0 0 C0 2.66420516 -0.09162237 4.52260646 -1 7 C-1.99 7.33 -2.98 7.66 -4 8 C-4.20625 9.11375 -4.4125 10.2275 -4.625 11.375 C-6 15 -6 15 -8.125 16.12890625 C-10.40470821 16.86624937 -12.65864178 17.494151 -15 18 C-13.60366893 14.81440048 -11.95442507 12.76056155 -9.4375 10.375 C-6.85984611 7.95478041 -6.85984611 7.95478041 -5 5 C-4.34 5 -3.68 5 -3 5 C-2.690625 4.360625 -2.38125 3.72125 -2.0625 3.0625 C-1 1 -1 1 0 0 Z " fill="#618FCA" transform="translate(197,159)"/>
<path d="M0 0 C2.4375 1.0625 2.4375 1.0625 5 3 C5.8125 6.6875 5.8125 6.6875 6 10 C5.34 10 4.68 10 4 10 C4 10.66 4 11.32 4 12 C3.01 12 2.02 12 1 12 C0.67 9.36 0.34 6.72 0 4 C-0.66 4 -1.32 4 -2 4 C-2 4.66 -2 5.32 -2 6 C-2.66 6 -3.32 6 -4 6 C-2.84826645 3.53199953 -1.95216435 1.95216435 0 0 Z " fill="#477DC7" transform="translate(222,132)"/>
<path d="M0 0 C1.67542976 0.28604898 3.34385343 0.61781233 5 1 C5 1.66 5 2.32 5 3 C4.34 3 3.68 3 3 3 C2.75507813 3.56203125 2.51015625 4.1240625 2.2578125 4.703125 C0.77073461 7.41865854 -1.04062782 9.46391438 -3.125 11.75 C-4.21167969 12.94882813 -4.21167969 12.94882813 -5.3203125 14.171875 C-5.87460938 14.77515625 -6.42890625 15.3784375 -7 16 C-9 12.25 -9 12.25 -9 10 C-7.35 10 -5.7 10 -4 10 C-4 9.01 -4 8.02 -4 7 C-3.01 7 -2.02 7 -1 7 C-1.020625 6.030625 -1.04125 5.06125 -1.0625 4.0625 C-1 1 -1 1 0 0 Z " fill="#6490CB" transform="translate(197,169)"/>
<path d="M0 0 C-2.90782034 1.9385469 -4.37674287 2.44091468 -7.7109375 3.0703125 C-8.62617188 3.24433594 -9.54140625 3.41835938 -10.484375 3.59765625 C-11.43828125 3.77167969 -12.3921875 3.94570313 -13.375 4.125 C-14.32117188 4.30675781 -15.26734375 4.48851562 -16.2421875 4.67578125 C-20.570535 5.48430684 -24.58346152 6.101473 -29 6 C-28.67 5.01 -28.34 4.02 -28 3 C-27.28714844 2.95101563 -26.57429688 2.90203125 -25.83984375 2.8515625 C-21.5354388 2.51555242 -17.58862188 2.17555389 -13.4375 0.9375 C-8.90905281 -0.29753105 -4.66284413 -0.16887564 0 0 Z " fill="#86A6D2" transform="translate(309,429)"/>
<path d="M0 0 C0.33 0 0.66 0 1 0 C1.3125 3.25 1.3125 3.25 1 7 C-1.4375 9.3125 -1.4375 9.3125 -4 11 C-4.33 11.66 -4.66 12.32 -5 13 C-5.66 13 -6.32 13 -7 13 C-7.66 14.32 -8.32 15.64 -9 17 C-9.66 16.67 -10.32 16.34 -11 16 C-10.34 14.35 -9.68 12.7 -9 11 C-8.34 11 -7.68 11 -7 11 C-6.34 9.35 -5.68 7.7 -5 6 C-4.34 6 -3.68 6 -3 6 C-2.690625 5.195625 -2.38125 4.39125 -2.0625 3.5625 C-1 1 -1 1 0 0 Z " fill="#6190C9" transform="translate(236,134)"/>
<path d="M0 0 C0.5534764 2.07553648 1 3.84365964 1 6 C0 7 -1 8 -2 9 C-3.33333333 12 -3.33333333 12 -2 15 C-2.99 15.33 -3.98 15.66 -5 16 C-5.33 16.99 -5.66 17.98 -6 19 C-8.0625 20.6875 -8.0625 20.6875 -10 22 C-9.36042408 19.11342911 -8.449403 16.59695589 -7.1875 13.92578125 C-6.83429688 13.17619141 -6.48109375 12.42660156 -6.1171875 11.65429688 C-5.56417969 10.49510742 -5.56417969 10.49510742 -5 9.3125 C-4.63132812 8.52810547 -4.26265625 7.74371094 -3.8828125 6.93554688 C-1.13585283 1.13585283 -1.13585283 1.13585283 0 0 Z " fill="#6992CB" transform="translate(120,257)"/>
<path d="M0 0 C0.66 0 1.32 0 2 0 C0.37228982 3.73572828 -1.98033305 6.61658392 -4.5625 9.75 C-5.36816406 10.73484375 -6.17382812 11.7196875 -7.00390625 12.734375 C-7.66261719 13.48203125 -8.32132813 14.2296875 -9 15 C-9.33 15 -9.66 15 -10 15 C-10.66 12.36 -11.32 9.72 -12 7 C-10.68 6.01 -9.36 5.02 -8 4 C-7.67 4.99 -7.34 5.98 -7 7 C-6.34 7.33 -5.68 7.66 -5 8 C-4.67 7.01 -4.34 6.02 -4 5 C-2.0625 2.3125 -2.0625 2.3125 0 0 Z " fill="#648FCB" transform="translate(222,144)"/>
<path d="M0 0 C0.33 0 0.66 0 1 0 C1.31838702 3.20092666 1.1952605 4.68668659 -0.53125 7.45703125 C-1.50578125 8.62298828 -1.50578125 8.62298828 -2.5 9.8125 C-3.1496875 10.60269531 -3.799375 11.39289063 -4.46875 12.20703125 C-4.9740625 12.79871094 -5.479375 13.39039063 -6 14 C-6.66 13.34 -7.32 12.68 -8 12 C-7.67 11.67 -7.34 11.34 -7 11 C-6.76924918 9.65252916 -6.58846937 8.29622435 -6.4375 6.9375 C-6.293125 5.638125 -6.14875 4.33875 -6 3 C-5.34 3 -4.68 3 -4 3 C-3.67 2.34 -3.34 1.68 -3 1 C-2.01 1.33 -1.02 1.66 0 2 C0 1.34 0 0.68 0 0 Z " fill="#5A88C8" transform="translate(160,217)"/>
<path d="M0 0 C0.66 0 1.32 0 2 0 C2.33 0.99 2.66 1.98 3 3 C-7.37357631 9.51936219 -7.37357631 9.51936219 -13 11 C-13.33 10.01 -13.66 9.02 -14 8 C-12.68 8 -11.36 8 -10 8 C-10 7.34 -10 6.68 -10 6 C-7.69 5.34 -5.38 4.68 -3 4 C-3 3.34 -3 2.68 -3 2 C-2.01 2 -1.02 2 0 2 C0 1.34 0 0.68 0 0 Z " fill="#7A9ED0" transform="translate(354,407)"/>
<path d="M0 0 C0 0.66 0 1.32 0 2 C-7.11930504 5.55965252 -17.16256482 5.27025639 -25 5 C-24.67 4.34 -24.34 3.68 -24 3 C-21.89868164 2.49755859 -21.89868164 2.49755859 -19.16015625 2.1484375 C-17.6896582 1.95507812 -17.6896582 1.95507812 -16.18945312 1.7578125 C-15.15755859 1.63148438 -14.12566406 1.50515625 -13.0625 1.375 C-11.52045898 1.17390625 -11.52045898 1.17390625 -9.94726562 0.96875 C-2.41968272 0 -2.41968272 0 0 0 Z " fill="#5889C3" transform="translate(308,346)"/>
<path d="M0 0 C0.33 0.99 0.66 1.98 1 3 C-0.6875 5.8125 -0.6875 5.8125 -3 9 C-3.639375 10.093125 -4.27875 11.18625 -4.9375 12.3125 C-7 15 -7 15 -9.75 15.875 C-10.4925 15.91625 -11.235 15.9575 -12 16 C-11.67 15.01 -11.34 14.02 -11 13 C-10.34 13 -9.68 13 -9 13 C-8.34 11.35 -7.68 9.7 -7 8 C-6.34 8 -5.68 8 -5 8 C-4.731875 7.4225 -4.46375 6.845 -4.1875 6.25 C-2.98280141 3.9674132 -1.59201885 2.0262058 0 0 Z " fill="#7398CC" transform="translate(158,203)"/>
<path d="M0 0 C0.66 0 1.32 0 2 0 C2.33 2.97 2.66 5.94 3 9 C3.66 9 4.32 9 5 9 C5.12375 9.53625 5.2475 10.0725 5.375 10.625 C5.99134413 13.14779539 5.99134413 13.14779539 7.1875 16.0625 C7.455625 17.031875 7.72375 18.00125 8 19 C7.34 19.99 6.68 20.98 6 22 C2.91036813 14.62364642 0.40799325 8.02386726 0 0 Z " fill="#779ECB" transform="translate(100,354)"/>
<path d="M0 0 C0.66 0 1.32 0 2 0 C1.4636738 4.55877267 -0.1220031 7.44037226 -3 11 C-5.26762013 12.58149473 -7.51498489 13.75749245 -10 15 C-8.37940026 11.45493808 -6.27370948 8.40978743 -4 5.25 C-3.29875 4.26515625 -2.5975 3.2803125 -1.875 2.265625 C-0.946875 1.14414063 -0.946875 1.14414063 0 0 Z " fill="#7199CE" transform="translate(194,188)"/>
<path d="M0 0 C0.33 0.99 0.66 1.98 1 3 C2.98 2.67 4.96 2.34 7 2 C6 5 6 5 5 7 C4.34 7 3.68 7 3 7 C2.34 8.65 1.68 10.3 1 12 C0.67 12 0.34 12 0 12 C-0.66 10.02 -1.32 8.04 -2 6 C-2.66 6 -3.32 6 -4 6 C-4 4 -4 4 -2 1.875 C-1.34 1.25625 -0.68 0.6375 0 0 Z " fill="#3572C1" transform="translate(227,128)"/>
<path d="M0 0 C0.66 0.33 1.32 0.66 2 1 C2.3913152 5.45936282 1.21759262 7.97791276 -1 11.8125 C-1.556875 12.78832031 -2.11375 13.76414062 -2.6875 14.76953125 C-3.3371875 15.87361328 -3.3371875 15.87361328 -4 17 C-4.66 16.67 -5.32 16.34 -6 16 C-5.34 13.69 -4.68 11.38 -4 9 C-3.34 9 -2.68 9 -2 9 C-1.855625 7.88625 -1.71125 6.7725 -1.5625 5.625 C-1 2 -1 2 0 0 Z " fill="#6A98CC" transform="translate(396,360)"/>
<path d="M0 0 C0.66 0 1.32 0 2 0 C2 6.98942918 2 6.98942918 -0.84765625 9.8671875 C-2.85163882 11.34455031 -4.86687244 12.71720803 -7 14 C-7 10.15052186 -5.68848757 8.53406733 -3.625 5.3125 C-2.99851563 4.31863281 -2.37203125 3.32476562 -1.7265625 2.30078125 C-1.15679687 1.54152344 -0.58703125 0.78226563 0 0 Z " fill="#6E95CC" transform="translate(136,231)"/>
<path d="M0 0 C0.66 0 1.32 0 2 0 C3.39195915 4.17587745 1.82323219 6.13474776 0 10 C0.66 10 1.32 10 2 10 C1.34 11.32 0.68 12.64 0 14 C-0.66 13.01 -1.32 12.02 -2 11 C-2.33 11 -2.66 11 -3 11 C-3.33 8.69 -3.66 6.38 -4 4 C-3.34 4 -2.68 4 -2 4 C-1.34 2.68 -0.68 1.36 0 0 Z " fill="#3574C7" transform="translate(137,241)"/>
<path d="M0 0 C0.33 0 0.66 0 1 0 C1.56465362 3.83964463 1.05627386 4.92395424 -1.3125 8.125 C-5.29 12.38 -5.29 12.38 -7 14 C-7.66 13.67 -8.32 13.34 -9 13 C-7.51222697 9.74035658 -5.64333184 7.06830707 -3.4375 4.25 C-2.81746094 3.45078125 -2.19742188 2.6515625 -1.55859375 1.828125 C-0.78708984 0.92320312 -0.78708984 0.92320312 0 0 Z " fill="#7398CD" transform="translate(177,211)"/>
<path d="M0 0 C5.90849918 1.58332331 10.04445651 3.05557064 14 8 C14.33 8.99 14.66 9.98 15 11 C10.92584833 9.59790456 8.01720177 7.65552322 4.6875 4.9375 C3.80449219 4.22464844 2.92148438 3.51179688 2.01171875 2.77734375 C1.34785156 2.19082031 0.68398437 1.60429687 0 1 C0 0.67 0 0.34 0 0 Z " fill="#6A96CC" transform="translate(125,400)"/>
<path d="M0 0 C0.33 0 0.66 0 1 0 C1 2.64 1 5.28 1 8 C0.34 8 -0.32 8 -1 8 C-1.061875 9.03125 -1.12375 10.0625 -1.1875 11.125 C-2.18548657 15.88462827 -3.70490867 17.53592963 -7 21 C-7.33 20.34 -7.66 19.68 -8 19 C-7.505 17.515 -7.505 17.515 -7 16 C-6.34 16 -5.68 16 -5 16 C-5 14.35 -5 12.7 -5 11 C-4.34 11 -3.68 11 -3 11 C-2.67 8.36 -2.34 5.72 -2 3 C-1.34 3 -0.68 3 0 3 C0 2.01 0 1.02 0 0 Z " fill="#386FBC" transform="translate(134,279)"/>
<path d="M0 0 C0.99 0.33 1.98 0.66 3 1 C1.83348574 6.92863717 0.24480642 12.38798394 -2 18 C-2.33 18 -2.66 18 -3 18 C-2.67 13.38 -2.34 8.76 -2 4 C-1.34 4 -0.68 4 0 4 C0 2.68 0 1.36 0 0 Z " fill="#6190C9" transform="translate(229,268)"/>
<path d="M0 0 C0.33 1.32 0.66 2.64 1 4 C-1.64 4 -4.28 4 -7 4 C-7 4.66 -7 5.32 -7 6 C-8.32 6.33 -9.64 6.66 -11 7 C-8.1177836 1.78456079 -6.12393015 -0.33102325 0 0 Z " fill="#5880C1" transform="translate(279,74)"/>
<path d="M0 0 C0.33 0.99 0.66 1.98 1 3 C-0.375 4.5 -0.375 4.5 -2 6 C-2.66 6 -3.32 6 -4 6 C-4.495 6.66 -4.99 7.32 -5.5 8 C-5.995 8.66 -6.49 9.32 -7 10 C-7.66 10 -8.32 10 -9 10 C-9 10.66 -9 11.32 -9 12 C-9.66 11.67 -10.32 11.34 -11 11 C-10.67 9.35 -10.34 7.7 -10 6 C-9.01 6.33 -8.02 6.66 -7 7 C-6.95875 6.401875 -6.9175 5.80375 -6.875 5.1875 C-6 3 -6 3 -2.9375 1.25 C-1.968125 0.8375 -0.99875 0.425 0 0 Z " fill="#82A8D7" transform="translate(239,128)"/>
<path d="M0 0 C7.43378943 -0.33452052 13.19877155 -0.13902852 20 3 C20 3.33 20 3.66 20 4 C12.91923749 4.40850553 6.80074041 2.90420731 0 1 C0 0.67 0 0.34 0 0 Z " fill="#759CCF" transform="translate(188,431)"/>
<path d="M0 0 C0.66 0 1.32 0 2 0 C1.41523944 7.09406894 0.36766005 14.01563899 -1 21 C-1.33 21 -1.66 21 -2 21 C-2.20177072 13.64657821 -2.21211746 7.05112439 0 0 Z " fill="#749BCC" transform="translate(119,292)"/>
<path d="M0 0 C0.33 0 0.66 0 1 0 C1 3.3 1 6.6 1 10 C-0.65 10.33 -2.3 10.66 -4 11 C-4 11.99 -4 12.98 -4 14 C-4.66 14 -5.32 14 -6 14 C-4.50829734 9.0276578 -2.39542583 4.58154261 0 0 Z " fill="#6692CC" transform="translate(138,268)"/>
<path d="M0 0 C0.66 0.33 1.32 0.66 2 1 C0.83805848 7.46712188 -1.1248748 13.09622349 -4 19 C-4.87840996 15.90279155 -4.99435406 14.09354597 -4 11 C-3.34 11 -2.68 11 -2 11 C-1.93941406 10.37351563 -1.87882812 9.74703125 -1.81640625 9.1015625 C-1.73261719 8.28429687 -1.64882813 7.46703125 -1.5625 6.625 C-1.48128906 5.81289062 -1.40007812 5.00078125 -1.31640625 4.1640625 C-1 2 -1 2 0 0 Z " fill="#719AC9" transform="translate(263,186)"/>
<path d="M0 0 C0.33 0.99 0.66 1.98 1 3 C0.01 3.33 -0.98 3.66 -2 4 C-2.33 6.64 -2.66 9.28 -3 12 C-3.99 11.67 -4.98 11.34 -6 11 C-6.33 10.01 -6.66 9.02 -7 8 C-4.95925695 4.42869967 -3.44246864 2.2949791 0 0 Z " fill="#3270C0" transform="translate(183,176)"/>
<path d="M0 0 C0.66 0.66 1.32 1.32 2 2 C1.01 2 0.02 2 -1 2 C-1 2.99 -1 3.98 -1 5 C-0.34 5 0.32 5 1 5 C0.67 5.99 0.34 6.98 0 8 C-0.66 8 -1.32 8 -2 8 C-2.33 8.99 -2.66 9.98 -3 11 C-3.99 9.68 -4.98 8.36 -6 7 C-5.01 7 -4.02 7 -3 7 C-3.99 6.34 -4.98 5.68 -6 5 C-5.67 4.34 -5.34 3.68 -5 3 C-4.34 3 -3.68 3 -3 3 C-3 2.34 -3 1.68 -3 1 C-2.01 0.67 -1.02 0.34 0 0 Z " fill="#3375CC" transform="translate(208,153)"/>
<path d="M0 0 C-0.639375 0.103125 -1.27875 0.20625 -1.9375 0.3125 C-2.618125 0.539375 -3.29875 0.76625 -4 1 C-4.33 1.99 -4.66 2.98 -5 4 C-6.99609375 4.80078125 -6.99609375 4.80078125 -9.4375 5.3125 C-10.24058594 5.49425781 -11.04367187 5.67601562 -11.87109375 5.86328125 C-12.92490234 5.93095703 -12.92490234 5.93095703 -14 6 C-14.66 5.34 -15.32 4.68 -16 4 C-13.71144298 3.13656269 -11.4198072 2.2840189 -9.125 1.4375 C-8.47402344 1.19064453 -7.82304687 0.94378906 -7.15234375 0.68945312 C-2.2265625 -1.11328125 -2.2265625 -1.11328125 0 0 Z " fill="#78A4CF" transform="translate(339,337)"/>
<path d="M0 0 C0.66 0 1.32 0 2 0 C-1.07517084 10.55808656 -1.07517084 10.55808656 -3 15 C-3.33 15 -3.66 15 -4 15 C-3.67 11.04 -3.34 7.08 -3 3 C-2.01 2.67 -1.02 2.34 0 2 C0 1.34 0 0.68 0 0 Z " fill="#6F95CA" transform="translate(242,238)"/>
<path d="M0 0 C0.66 0.99 1.32 1.98 2 3 C1.34 3 0.68 3 0 3 C0.33 3.66 0.66 4.32 1 5 C1.04022391 7.3329866 1.04320247 9.66706666 1 12 C0.34 12 -0.32 12 -1 12 C-1 12.99 -1 13.98 -1 15 C-1.66 15 -2.32 15 -3 15 C-2.44854729 9.76119922 -1.57077907 5.02649303 0 0 Z " fill="#6A97CB" transform="translate(124,301)"/>
<path d="M0 0 C0 0.66 0 1.32 0 2 C0.66 2.33 1.32 2.66 2 3 C-2.62197306 5.21854707 -5.76824163 6.38281159 -11 6 C-8.98932585 1.9786517 -4.28943425 0 0 0 Z " fill="#6894CF" transform="translate(380,315)"/>
<path d="M0 0 C1.32 1.32 2.64 2.64 4 4 C3.34 5.32 2.68 6.64 2 8 C2 7.01 2 6.02 2 5 C-0.31 5.33 -2.62 5.66 -5 6 C-3.63016497 2.83884224 -3.0109362 2.0072908 0 0 Z " fill="#4782C9" transform="translate(392,312)"/>
<path d="M0 0 C0.66 0 1.32 0 2 0 C2.65234375 1.734375 2.65234375 1.734375 3 4 C2.00390625 6.140625 2.00390625 6.140625 0.5625 8.25 C0.08941406 8.95640625 -0.38367188 9.6628125 -0.87109375 10.390625 C-1.24363281 10.92171875 -1.61617187 11.4528125 -2 12 C-2.33 11.34 -2.66 10.68 -3 10 C-2.67 9.34 -2.34 8.68 -2 8 C-2.66 8 -3.32 8 -4 8 C-3.67 6.68 -3.34 5.36 -3 4 C-2.34 4 -1.68 4 -1 4 C-0.67 2.68 -0.34 1.36 0 0 Z " fill="#6893CE" transform="translate(141,243)"/>
<path d="M0 0 C0.99 0 1.98 0 3 0 C2.07506212 3.78383679 1.60628829 5.56693694 -1.625 7.875 C-2.40875 8.24625 -3.1925 8.6175 -4 9 C-3.47557578 5.2241456 -2.67345333 2.77627845 0 0 Z " fill="#5C87C8" transform="translate(162,231)"/>
<path d="M0 0 C0.66 0.99 1.32 1.98 2 3 C1.67 3.66 1.34 4.32 1 5 C0.34 5 -0.32 5 -1 5 C-1.226875 5.598125 -1.45375 6.19625 -1.6875 6.8125 C-3.33811133 9.56351888 -5.1972081 10.52484637 -8 12 C-6.59023295 8.96147295 -4.91129772 6.4060405 -2.875 3.75 C-2.06675781 2.69039062 -2.06675781 2.69039062 -1.2421875 1.609375 C-0.83226562 1.07828125 -0.42234375 0.5471875 0 0 Z " fill="#7A9FD2" transform="translate(218,158)"/>
<path d="M0 0 C0.33 1.32 0.66 2.64 1 4 C0.01 4 -0.98 4 -2 4 C-2.12375 4.598125 -2.2475 5.19625 -2.375 5.8125 C-3 8 -3 8 -5 11 C-5.99 11 -6.98 11 -8 11 C-7.43040847 7.37386801 -6.07625466 5.74482259 -3.4375 3.25 C-2.79683594 2.63640625 -2.15617187 2.0228125 -1.49609375 1.390625 C-1.00238281 0.93171875 -0.50867188 0.4728125 0 0 Z " fill="#6891C7" transform="translate(265,83)"/>
<path d="M0 0 C0.33 0 0.66 0 1 0 C0.67 7.59 0.34 15.18 0 23 C-0.33 23 -0.66 23 -1 23 C-1.33 16.73 -1.66 10.46 -2 4 C-1.34 4 -0.68 4 0 4 C0 2.68 0 1.36 0 0 Z " fill="#8DB8E1" transform="translate(116,314)"/>
<path d="M0 0 C0.66 0 1.32 0 2 0 C1.45660208 4.56454251 0.20536179 7.9728176 -2 12 C-2.66 11.34 -3.32 10.68 -4 10 C-3.60431084 7.03233127 -2.3983796 4.62196175 -1 2 C-0.67 1.34 -0.34 0.68 0 0 Z " fill="#6993C6" transform="translate(133,259)"/>
<path d="M0 0 C-1.74552473 0.84266711 -3.4966208 1.67380038 -5.25 2.5 C-6.22453125 2.9640625 -7.1990625 3.428125 -8.203125 3.90625 C-11 5 -11 5 -15 5 C-15 4.34 -15 3.68 -15 3 C-13.25531628 2.29911844 -11.50398839 1.61475991 -9.75 0.9375 C-8.77546875 0.55464844 -7.8009375 0.17179687 -6.796875 -0.22265625 C-3.95992605 -1.01113787 -2.70590448 -1.02437812 0 0 Z " fill="#6D97C6" transform="translate(340,419)"/>
<path d="M0 0 C0.33 0.99 0.66 1.98 1 3 C0.34 3 -0.32 3 -1 3 C-1.268125 3.598125 -1.53625 4.19625 -1.8125 4.8125 C-2.98493467 6.97224808 -4.19369282 8.35790256 -6 10 C-6.99 9.67 -7.98 9.34 -9 9 C-8.06725891 7.87105124 -7.12859878 6.74699124 -6.1875 5.625 C-5.66542969 4.99851563 -5.14335937 4.37203125 -4.60546875 3.7265625 C-3 2 -3 2 0 0 Z " fill="#638FC6" transform="translate(212,168)"/>
<path d="M0 0 C0.99 0 1.98 0 3 0 C2.52269162 1.4589426 2.04308958 2.91713496 1.5625 4.375 C1.29566406 5.18710937 1.02882812 5.99921875 0.75390625 6.8359375 C0 9 0 9 -1 11 C-1.66 11 -2.32 11 -3 11 C-3 9.35 -3 7.7 -3 6 C-2.01 5.67 -1.02 5.34 0 5 C0 3.35 0 1.7 0 0 Z " fill="#618AC4" transform="translate(127,271)"/>
<path d="M0 0 C1.65 0 3.3 0 5 0 C3.50902342 3.7952131 1.24299151 5.61042731 -2 8 C-2 6.68 -2 5.36 -2 4 C-1.34 4 -0.68 4 0 4 C0 2.68 0 1.36 0 0 Z " fill="#6290C8" transform="translate(371,393)"/>
<path d="M0 0 C2 1 2 1 2.8515625 2.9609375 C3.10679687 3.75757813 3.36203125 4.55421875 3.625 5.375 C3.88539063 6.16648437 4.14578125 6.95796875 4.4140625 7.7734375 C5 10 5 10 5 13 C4.34 13 3.68 13 3 13 C2.49242138 11.58603098 1.99425075 10.16868271 1.5 8.75 C1.08234375 7.56664062 1.08234375 7.56664062 0.65625 6.359375 C0 4 0 4 0 0 Z " fill="#678EC7" transform="translate(396,318)"/>
<path d="M0 0 C1.65 0 3.3 0 5 0 C5 0.66 5 1.32 5 2 C7.97 2.495 7.97 2.495 11 3 C10.67 3.66 10.34 4.32 10 5 C6.44219804 4.39009109 3.3171411 3.4216319 0 2 C0 1.34 0 0.68 0 0 Z " fill="#5D8BCA" transform="translate(160,421)"/>
<path d="M0 0 C1.27310312 0.93441535 2.543388 1.87267111 3.8125 2.8125 C4.52019531 3.33457031 5.22789062 3.85664063 5.95703125 4.39453125 C7.78531393 5.83128877 9.39896688 7.31815763 11 9 C10.01 9.33 9.02 9.66 8 10 C6.33333333 8.33333333 4.66666667 6.66666667 3 5 C2.401875 4.443125 1.80375 3.88625 1.1875 3.3125 C0 2 0 2 0 0 Z " fill="#91AEDA" transform="translate(228,334)"/>
<path d="M0 0 C1.65 0.99 3.3 1.98 5 3 C4.67 3.99 4.34 4.98 4 6 C2.02 5.34 0.04 4.68 -2 4 C-2 4.66 -2 5.32 -2 6 C-2.66 6 -3.32 6 -4 6 C-2.84826645 3.53199953 -1.95216435 1.95216435 0 0 Z " fill="#5185CC" transform="translate(222,132)"/>
<path d="M0 0 C1.2065625 0.0309375 1.2065625 0.0309375 2.4375 0.0625 C0.99496343 3.42841866 -0.89514727 5.57297079 -3.5625 8.0625 C-3.60491723 5.72955225 -3.60342937 3.39547433 -3.5625 1.0625 C-2.5625 0.0625 -2.5625 0.0625 0 0 Z " fill="#739CD0" transform="translate(387.5625,377.9375)"/>
<path d="M0 0 C-0.33 0.66 -0.66 1.32 -1 2 C-2.99226169 2.28919928 -4.98722182 2.57264551 -6.9921875 2.75390625 C-9.20329268 2.9575063 -9.20329268 2.9575063 -12 4 C-12.99 3.34 -13.98 2.68 -15 2 C-9.77487721 0.53329887 -5.4185766 -0.22577402 0 0 Z " fill="#6188BF" transform="translate(324,343)"/>
<path d="M0 0 C0.66 0 1.32 0 2 0 C0.55007731 4.10811428 -1.45407573 7.46855666 -4 11 C-4.33 11 -4.66 11 -5 11 C-5 9.35 -5 7.7 -5 6 C-4.01 6 -3.02 6 -2 6 C-2 4.68 -2 3.36 -2 2 C-1.34 2 -0.68 2 0 2 C0 1.34 0 0.68 0 0 Z " fill="#83A6D0" transform="translate(149,234)"/>
<path d="M0 0 C0.66 0.33 1.32 0.66 2 1 C2.1875 3.375 2.1875 3.375 2 6 C1.01 6.66 0.02 7.32 -1 8 C-1.66 6.68 -2.32 5.36 -3 4 C-2.01 2.68 -1.02 1.36 0 0 Z " fill="#497DC6" transform="translate(175,195)"/>
<path d="M0 0 C0.66 0 1.32 0 2 0 C1.67 0.7425 1.34 1.485 1 2.25 C-0.22782871 5.13883312 -0.22782871 5.13883312 0 9 C-0.99 8.67 -1.98 8.34 -3 8 C-3.6875 5.9375 -3.6875 5.9375 -4 4 C-3.34 4 -2.68 4 -2 4 C-1.34 2.68 -0.68 1.36 0 0 Z " fill="#2F72CA" transform="translate(217,143)"/>
<path d="M0 0 C0 0.66 0 1.32 0 2 C-3.44365 4.43081177 -6.9336649 5.91564397 -11 7 C-11.66 6.67 -12.32 6.34 -13 6 C-11.21118264 4.99491199 -9.41885304 3.99607264 -7.625 3 C-6.62726563 2.443125 -5.62953125 1.88625 -4.6015625 1.3125 C-2 0 -2 0 0 0 Z " fill="#779ECB" transform="translate(369,321)"/>
<path d="M0 0 C0.66 0.99 1.32 1.98 2 3 C-1.44615385 8.78461538 -1.44615385 8.78461538 -4.25 9.875 C-4.8275 9.91625 -5.405 9.9575 -6 10 C-4.07119658 6.59244728 -2.1723491 3.25852365 0 0 Z " fill="#648EC5" transform="translate(145,219)"/>
<path d="M0 0 C0.33 0.99 0.66 1.98 1 3 C1.66 3.33 2.32 3.66 3 4 C1.865625 4.268125 0.73125 4.53625 -0.4375 4.8125 C-2.2009375 5.4003125 -2.2009375 5.4003125 -4 6 C-4.33 6.99 -4.66 7.98 -5 9 C-5.66 8.67 -6.32 8.34 -7 8 C-6.34 7.01 -5.68 6.02 -5 5 C-4.34 5 -3.68 5 -3 5 C-2.690625 4.360625 -2.38125 3.72125 -2.0625 3.0625 C-1 1 -1 1 0 0 Z " fill="#6E93CC" transform="translate(238,114)"/>
<path d="M0 0 C3.63 0 7.26 0 11 0 C7.96474514 2.02350324 6.80573798 2.32124018 3.3125 2.625 C2.50425781 2.69976562 1.69601562 2.77453125 0.86328125 2.8515625 C0.24839844 2.90054687 -0.36648438 2.94953125 -1 3 C-0.67 2.01 -0.34 1.02 0 0 Z " fill="#7198CA" transform="translate(281,432)"/>
<path d="M0 0 C-3.13593102 2.09062068 -4.42104748 2.33539995 -8.0625 2.625 C-8.94035156 2.69976562 -9.81820313 2.77453125 -10.72265625 2.8515625 C-12.14627491 2.94435411 -13.57336047 3 -15 3 C-15 2.34 -15 1.68 -15 1 C-9.91913204 0.15318867 -5.15171623 -0.09038099 0 0 Z " fill="#3C72BE" transform="translate(312,427)"/>
<path d="M0 0 C2.72869407 0.03287583 5.2966618 0.56397771 8 1 C7.67 1.99 7.34 2.98 7 4 C2.545 3.01 2.545 3.01 -2 2 C-1.34 1.34 -0.68 0.68 0 0 Z " fill="#769DD4" transform="translate(172,425)"/>
<path d="M0 0 C0.66 0 1.32 0 2 0 C1.67 2.31 1.34 4.62 1 7 C0.01 7.33 -0.98 7.66 -2 8 C-2.33 7.01 -2.66 6.02 -3 5 C-2.67 4.34 -2.34 3.68 -2 3 C-1.34 3 -0.68 3 0 3 C0 2.01 0 1.02 0 0 Z " fill="#3671BF" transform="translate(123,254)"/>
<path d="M0 0 C2.31 0.33 4.62 0.66 7 1 C7.33 2.32 7.66 3.64 8 5 C4.20411134 4.45773019 2.52788007 2.79872437 0 0 Z " fill="#76A1CE" transform="translate(140,411)"/>
<path d="M0 0 C3 1 3 1 5 3 C5 3.99 5 4.98 5 6 C5.66 6.33 6.32 6.66 7 7 C6.67 7.99 6.34 8.98 6 10 C4.99421411 8.71283353 3.99553202 7.42011342 3 6.125 C2.443125 5.40570313 1.88625 4.68640625 1.3125 3.9453125 C0 2 0 2 0 0 Z " fill="#89ABD4" transform="translate(111,383)"/>
<path d="M0 0 C1.04449911 3.13349732 0.93423645 3.98968256 0 7 C-0.99 7 -1.98 7 -3 7 C-3 7.99 -3 8.98 -3 10 C-3.66 10 -4.32 10 -5 10 C-3.66511872 6.40608886 -2.03977277 3.24509304 0 0 Z " fill="#729CCB" transform="translate(126,247)"/>
<path d="M0 0 C0.66 0 1.32 0 2 0 C1.8125 2.8125 1.8125 2.8125 1 6 C-1.5625 7.875 -1.5625 7.875 -4 9 C-2.80100302 5.9168649 -1.52299523 2.93720508 0 0 Z " fill="#85A8CE" transform="translate(147,252)"/>
<path d="M0 0 C0.66 0.33 1.32 0.66 2 1 C-0.37823834 5.84455959 -0.37823834 5.84455959 -2 8 C-4.75 8.9375 -4.75 8.9375 -7 9 C-6.57847656 8.51789063 -6.15695313 8.03578125 -5.72265625 7.5390625 C-5.17480469 6.90742188 -4.62695312 6.27578125 -4.0625 5.625 C-3.51722656 4.99851563 -2.97195312 4.37203125 -2.41015625 3.7265625 C-0.93041376 2.04367666 -0.93041376 2.04367666 0 0 Z " fill="#86A7D3" transform="translate(216,138)"/>
<path d="M0 0 C0.33 1.32 0.66 2.64 1 4 C0.38125 4.268125 -0.2375 4.53625 -0.875 4.8125 C-3.2995233 5.95556848 -3.2995233 5.95556848 -5 9 C-5.66 8.67 -6.32 8.34 -7 8 C-4.69 5.36 -2.38 2.72 0 0 Z " fill="#86AAD2" transform="translate(230,123)"/>
<path d="M0 0 C0.66 0.33 1.32 0.66 2 1 C1.01 3.97 0.02 6.94 -1 10 C-1.33 10 -1.66 10 -2 10 C-2.25 3.375 -2.25 3.375 0 0 Z " fill="#668FC7" transform="translate(251,216)"/>
<path d="M0 0 C0.66 0.33 1.32 0.66 2 1 C1.39009109 4.55780196 0.4216319 7.6828589 -1 11 C-1.33 11 -1.66 11 -2 11 C-1.125 3.375 -1.125 3.375 0 0 Z " fill="#6E9DCB" transform="translate(267,176)"/>
<path d="M0 0 C2.475 0.495 2.475 0.495 5 1 C4.67 2.65 4.34 4.3 4 6 C3.34 5.67 2.68 5.34 2 5 C2 4.34 2 3.68 2 3 C1.34 3 0.68 3 0 3 C0 2.01 0 1.02 0 0 Z " fill="#447FC6" transform="translate(207,155)"/>
<path d="M0 0 C0.75 1.75 0.75 1.75 1 4 C-0.9375 6.25 -0.9375 6.25 -3 8 C-3.33 6.02 -3.66 4.04 -4 2 C-3.01 2 -2.02 2 -1 2 C-0.67 1.34 -0.34 0.68 0 0 Z " fill="#5287D7" transform="translate(285,84)"/>
<path d="M0 0 C1.32 0.33 2.64 0.66 4 1 C3 3 3 3 -0.0625 4.125 C-1.5165625 4.558125 -1.5165625 4.558125 -3 5 C-3.33 4.01 -3.66 3.02 -4 2 C-2.68 2 -1.36 2 0 2 C0 1.34 0 0.68 0 0 Z " fill="#678FC3" transform="translate(344,413)"/>
<path d="M0 0 C0.99 0 1.98 0 3 0 C4.125 2.8125 4.125 2.8125 5 6 C4.01 7.485 4.01 7.485 3 9 C2.01 6.03 1.02 3.06 0 0 Z " fill="#83A7D4" transform="translate(103,367)"/>
<path d="M0 0 C0 0.99 0 1.98 0 3 C-2.90600261 4.25664978 -4.79604584 5 -8 5 C-8 4.34 -8 3.68 -8 3 C-5.36 2.01 -2.72 1.02 0 0 Z " fill="#366EB5" transform="translate(343,335)"/>
<path d="M0 0 C0.33 0 0.66 0 1 0 C1 2.31 1 4.62 1 7 C0.01 7 -0.98 7 -2 7 C-2.33 7.99 -2.66 8.98 -3 10 C-2.39009109 6.44219804 -1.4216319 3.3171411 0 0 Z " fill="#759ECF" transform="translate(109,280)"/>
<path d="M0 0 C0.66 0 1.32 0 2 0 C1.67 2.31 1.34 4.62 1 7 C-1 6 -1 6 -1.75 4.0625 C-1.8325 3.381875 -1.915 2.70125 -2 2 C-1.34 1.34 -0.68 0.68 0 0 Z " fill="#2E70C4" transform="translate(171,197)"/>
<path d="M0 0 C1.32 0.33 2.64 0.66 4 1 C4 1.66 4 2.32 4 3 C2.03852126 4.38938077 0.03833424 5.7260411 -2 7 C-1.34 4.69 -0.68 2.38 0 0 Z " fill="#4378C2" transform="translate(256,93)"/>
<path d="M0 0 C1.98 0 3.96 0 6 0 C4.25 3.875 4.25 3.875 2 5 C2 4.01 2 3.02 2 2 C1.34 2 0.68 2 0 2 C0 1.34 0 0.68 0 0 Z " fill="#578BC7" transform="translate(362,400)"/>
<path d="M0 0 C1.0625 1.875 1.0625 1.875 2 4 C1.67 4.66 1.34 5.32 1 6 C-0.32 5.34 -1.64 4.68 -3 4 C-3 3.01 -3 2.02 -3 1 C-2.01 0.67 -1.02 0.34 0 0 Z " fill="#4D7EC3" transform="translate(126,395)"/>
<path d="M0 0 C0.99 0.33 1.98 0.66 3 1 C1 3 1 3 -0.9453125 3.1953125 C-2.96354167 3.13020833 -4.98177083 3.06510417 -7 3 C-7 2.34 -7 1.68 -7 1 C-5.5459375 1.0309375 -5.5459375 1.0309375 -4.0625 1.0625 C-1.12534105 1.35618499 -1.12534105 1.35618499 0 0 Z " fill="#3872C0" transform="translate(315,345)"/>
<path d="M0 0 C0.33 0 0.66 0 1 0 C1.25 3.3125 1.25 3.3125 1 7 C-1 8.9375 -1 8.9375 -3 10 C-3 8.68 -3 7.36 -3 6 C-2.34 6 -1.68 6 -1 6 C-0.67 4.02 -0.34 2.04 0 0 Z " fill="#3F72BE" transform="translate(269,169)"/>
<path d="M0 0 C0.66 0.33 1.32 0.66 2 1 C2 2.65 2 4.3 2 6 C1.01 6.33 0.02 6.66 -1 7 C-0.67 4.69 -0.34 2.38 0 0 Z " fill="#5C89BF" transform="translate(396,360)"/>
<path d="M0 0 C0.66 0 1.32 0 2 0 C1.67 1.65 1.34 3.3 1 5 C0.01 5.33 -0.98 5.66 -2 6 C-1.125 1.125 -1.125 1.125 0 0 Z " fill="#3A75BF" transform="translate(112,276)"/>
<path d="M0 0 C0.33 0 0.66 0 1 0 C1 1.65 1 3.3 1 5 C-0.65 5.66 -2.3 6.32 -4 7 C-2.79618552 4.50638429 -1.54571278 2.31856917 0 0 Z " fill="#6C94CE" transform="translate(200,181)"/>
<path d="M0 0 C1.32 0 2.64 0 4 0 C4 0.66 4 1.32 4 2 C3.34 2 2.68 2 2 2 C1.71125 2.639375 1.4225 3.27875 1.125 3.9375 C0 6 0 6 -2 7 C-2 6.01 -2 5.02 -2 4 C-1.34 4 -0.68 4 0 4 C0 2.68 0 1.36 0 0 Z " fill="#7AA3CF" transform="translate(185,185)"/>
<path d="M0 0 C0.33 0.99 0.66 1.98 1 3 C0.01 3.33 -0.98 3.66 -2 4 C-2 4.66 -2 5.32 -2 6 C-2.99 5.67 -3.98 5.34 -5 5 C-3.35 3.35 -1.7 1.7 0 0 Z " fill="#4579B8" transform="translate(183,176)"/>
<path d="M0 0 C0 2.62113708 -0.31292445 4.50935112 -1 7 C-1.99 7 -2.98 7 -4 7 C-4.33 6.34 -4.66 5.68 -5 5 C-4.34 5 -3.68 5 -3 5 C-2.5359375 4.0409375 -2.5359375 4.0409375 -2.0625 3.0625 C-1 1 -1 1 0 0 Z " fill="#82A8D5" transform="translate(197,159)"/>
<path d="M0 0 C1 2 1 2 0.0625 5.125 C-0.288125 6.07375 -0.63875 7.0225 -1 8 C-2.32 8 -3.64 8 -5 8 C-3.62845496 5.04590299 -2.01136276 2.55991624 0 0 Z " fill="#769BCF" transform="translate(224,150)"/>
<path d="M0 0 C2 1 2 1 3 3 C2.01 3 1.02 3 0 3 C0 3.66 0 4.32 0 5 C-1.32 5.33 -2.64 5.66 -4 6 C-1.125 1.125 -1.125 1.125 0 0 Z " fill="#82A2CC" transform="translate(272,75)"/>
<path d="" fill="#FFFFFF" transform="translate(0,0)"/>
<path d="" fill="#FFFFFF" transform="translate(0,0)"/>
<path d="" fill="#FFFFFF" transform="translate(0,0)"/>
<path d="" fill="#FFFFFF" transform="translate(0,0)"/>
<path d="" fill="#FFFFFF" transform="translate(0,0)"/>
<path d="" fill="#FFFFFF" transform="translate(0,0)"/>
<path d="" fill="#FFFFFF" transform="translate(0,0)"/>
<path d="" fill="#FFFFFF" transform="translate(0,0)"/>
<path d="" fill="#FFFFFF" transform="translate(0,0)"/>
<path d="" fill="#FFFFFF" transform="translate(0,0)"/>
<path d="" fill="#FFFFFF" transform="translate(0,0)"/>
<path d="" fill="#FFFFFF" transform="translate(0,0)"/>
<path d="" fill="#FFFFFF" transform="translate(0,0)"/>
<path d="" fill="#FFFFFF" transform="translate(0,0)"/>
<path d="" fill="#FFFFFF" transform="translate(0,0)"/>
<path d="" fill="#FFFFFF" transform="translate(0,0)"/>
<path d="" fill="#FFFFFF" transform="translate(0,0)"/>
<path d="" fill="#FFFFFF" transform="translate(0,0)"/>
<path d="" fill="#FFFFFF" transform="translate(0,0)"/>
<path d="" fill="#FFFFFF" transform="translate(0,0)"/>
<path d="" fill="#FFFFFF" transform="translate(0,0)"/>
<path d="" fill="#FFFFFF" transform="translate(0,0)"/>
<path d="" fill="#FFFFFF" transform="translate(0,0)"/>
<path d="" fill="#FFFFFF" transform="translate(0,0)"/>
<path d="" fill="#FFFFFF" transform="translate(0,0)"/>
<path d="" fill="#FFFFFF" transform="translate(0,0)"/>
<path d="" fill="#FFFFFF" transform="translate(0,0)"/>
<path d="" fill="#FFFFFF" transform="translate(0,0)"/>
<path d="" fill="#FFFFFF" transform="translate(0,0)"/>
<path d="" fill="#FFFFFF" transform="translate(0,0)"/>
<path d="" fill="#FFFFFF" transform="translate(0,0)"/>
<path d="" fill="#FFFFFF" transform="translate(0,0)"/>
<path d="" fill="#FFFFFF" transform="translate(0,0)"/>
<path d="" fill="#FFFFFF" transform="translate(0,0)"/>
<path d="" fill="#FFFFFF" transform="translate(0,0)"/>
<path d="" fill="#FFFFFF" transform="translate(0,0)"/>
<path d="" fill="#FFFFFF" transform="translate(0,0)"/>
<path d="" fill="#FFFFFF" transform="translate(0,0)"/>
<path d="" fill="#FFFFFF" transform="translate(0,0)"/>
<path d="" fill="#FFFFFF" transform="translate(0,0)"/>
<path d="" fill="#FFFFFF" transform="translate(0,0)"/>
<path d="" fill="#FFFFFF" transform="translate(0,0)"/>
<path d="" fill="#FFFFFF" transform="translate(0,0)"/>
<path d="" fill="#FFFFFF" transform="translate(0,0)"/>
<path d="" fill="#FFFFFF" transform="translate(0,0)"/>
<path d="" fill="#FFFFFF" transform="translate(0,0)"/>
<path d="" fill="#FFFFFF" transform="translate(0,0)"/>
<path d="" fill="#FFFFFF" transform="translate(0,0)"/>
<path d="" fill="#FFFFFF" transform="translate(0,0)"/>
<path d="" fill="#FFFFFF" transform="translate(0,0)"/>
<path d="" fill="#FFFFFF" transform="translate(0,0)"/>
<path d="" fill="#FFFFFF" transform="translate(0,0)"/>
<path d="" fill="#FFFFFF" transform="translate(0,0)"/>
<path d="" fill="#FFFFFF" transform="translate(0,0)"/>
<path d="" fill="#FFFFFF" transform="translate(0,0)"/>
<path d="" fill="#FFFFFF" transform="translate(0,0)"/>
<path d="" fill="#FFFFFF" transform="translate(0,0)"/>
<path d="" fill="#FFFFFF" transform="translate(0,0)"/>
<path d="" fill="#FFFFFF" transform="translate(0,0)"/>
<path d="" fill="#FFFFFF" transform="translate(0,0)"/>
<path d="" fill="#FFFFFF" transform="translate(0,0)"/>
<path d="" fill="#FFFFFF" transform="translate(0,0)"/>
<path d="" fill="#FFFFFF" transform="translate(0,0)"/>
<path d="" fill="#FFFFFF" transform="translate(0,0)"/>
<path d="" fill="#FFFFFF" transform="translate(0,0)"/>
<path d="" fill="#FFFFFF" transform="translate(0,0)"/>
<path d="" fill="#FFFFFF" transform="translate(0,0)"/>
<path d="" fill="#FFFFFF" transform="translate(0,0)"/>
<path d="" fill="#FFFFFF" transform="translate(0,0)"/>
<path d="" fill="#FFFFFF" transform="translate(0,0)"/>
<path d="" fill="#FFFFFF" transform="translate(0,0)"/>
<path d="" fill="#FFFFFF" transform="translate(0,0)"/>
</svg>
